<svg viewBox="0 0 64 64" xmlns="http://www.w3.org/2000/svg">
  <path d="M 12 48 A 24 24 0 1 1 52 48" stroke="rgba(255,255,255,0.18)" stroke-width="3" fill="none" stroke-linecap="round"/>
  <path d="M 12 48 A 24 24 0 1 1 49 18" stroke="#e3a857" stroke-width="3" fill="none" stroke-linecap="round"/>
  <g stroke="rgba(255,255,255,0.35)" stroke-width="1.5" stroke-linecap="round">
    <line x1="12" y1="48" x2="15.5" y2="45.5"/>
    <line x1="9.5" y1="36" x2="13.5" y2="35"/>
    <line x1="11" y1="22" x2="15" y2="24"/>
    <line x1="22" y1="11" x2="24" y2="15"/>
    <line x1="32" y1="8" x2="32" y2="13"/>
    <line x1="42" y1="11" x2="40" y2="15"/>
    <line x1="53" y1="22" x2="49" y2="24"/>
    <line x1="54.5" y1="36" x2="50.5" y2="35"/>
    <line x1="52" y1="48" x2="48.5" y2="45.5"/>
  </g>
  <line x1="32" y1="40" x2="48" y2="18" stroke="#e3a857" stroke-width="2.5" stroke-linecap="round"/>
  <circle cx="32" cy="40" r="3.5" fill="#e3a857"/>
  <circle cx="32" cy="40" r="1.2" fill="#1b1813"/>
</svg>
