<svg viewBox="0 0 64 64" xmlns="http://www.w3.org/2000/svg">
  <rect x="2" y="2" width="60" height="60" rx="14" fill="#ffffff"/>
  <g transform="translate(14 14) scale(1.5)">
    <path fill="#4285F4" d="M23.49 12.27c0-.79-.07-1.54-.19-2.27H12v4.51h6.44c-.28 1.48-1.12 2.73-2.39 3.58v2.98h3.85c2.25-2.08 3.55-5.13 3.55-8.8Z"/>
    <path fill="#34A853" d="M12 24c3.24 0 5.95-1.08 7.93-2.93l-3.85-2.98c-1.07.72-2.45 1.16-4.08 1.16-3.13 0-5.78-2.11-6.73-4.96H1.29v3.07C3.26 21.3 7.31 24 12 24Z"/>
    <path fill="#FBBC05" d="M5.27 14.29c-.24-.72-.38-1.49-.38-2.29s.14-1.57.38-2.29V6.64H1.29A11.998 11.998 0 0 0 0 12c0 1.94.46 3.78 1.29 5.36l3.98-3.07Z"/>
    <path fill="#EA4335" d="M12 4.75c1.77 0 3.35.61 4.6 1.8l3.42-3.42C17.95 1.19 15.24 0 12 0 7.31 0 3.26 2.7 1.29 6.64l3.98 3.07C6.22 6.86 8.87 4.75 12 4.75Z"/>
  </g>
</svg>
